<svg width="1080" height="423" viewBox="0 0 1080 423" fill="none" xmlns="http://www.w3.org/2000/svg">
<path d="M49.6722 235.921C49.6722 246.382 42.2721 254.847 42.2721 265.521C36.9239 269.443 40.707 272.981 36.7905 278.129C29.9208 287.158 25.2528 299.625 27.7459 311.155C30.1137 322.107 32.7776 329.712 38.8461 339.249C45.3956 349.541 59.7128 357.69 70.6393 362.408C90.4698 370.971 109.277 379.019 130.389 384.198C145.579 387.924 160.453 388.216 175.954 389.611C197.831 391.58 219.639 393.268 241.528 395.024C282.682 398.324 323.89 398.024 365.138 396.531C412.997 394.799 461.14 396.257 509.029 396.257C555.793 396.257 603.096 398.188 649.769 395.024C700.408 391.591 751.317 395.165 802.02 393.516C872.336 391.23 946.31 391.729 1011.42 361.723C1021.71 356.981 1047.94 344.503 1048.69 330.889C1049.25 320.877 1043.42 313.171 1040.06 304.44C1038.16 299.501 1035.12 296.169 1035.12 290.736C1035.12 285.209 1035.7 280.252 1036.63 274.84C1038.51 264.009 1044.9 253.746 1049.65 243.869C1056.26 230.134 1053.81 211.545 1053.63 196.727C1053.39 177.857 1047.46 163.342 1040.53 146.361L1040.33 145.886C1033.73 129.714 1019.73 113.287 1006.76 101.759C986.409 83.6708 959.638 72.6633 934.538 63.2506C903.119 51.4684 871.518 43.1414 838.473 37.35C801.157 30.8102 763.105 25.2026 725.141 25.0165C687.613 24.8325 650.157 26.2498 612.631 26.2498C577.571 26.2498 542.557 30.6517 507.522 32.1425C489.319 32.9171 470.993 33.65 452.775 33.65C431.315 33.65 410.015 36.0136 388.571 36.1167C342.285 36.3392 296.777 40.2845 250.709 44.7502C208.898 48.8034 166.596 63.8643 126.689 76.5434C110.149 81.7982 95.3331 89.2668 80.5747 98.3327C69.8152 104.942 56.1314 111.854 48.7129 122.452C37.0895 139.057 25.2975 154.139 25.0051 175.486C24.8061 190.007 30.4906 201.787 38.8461 213.446C43.758 220.3 49.6722 227.216 49.6722 235.921Z" fill="#F7F0D4" stroke="white" stroke-width="50" stroke-linecap="round"/>
</svg>
