<svg width="460" height="255" viewBox="0 0 460 255" fill="none" xmlns="http://www.w3.org/2000/svg">
<path d="M350.224 153.634C338.533 156.087 296.397 186.771 287.657 188.997C271.043 193.229 253.679 198.11 237.659 204.118C209.836 214.551 180.348 219.471 151.429 226.228C131.791 230.816 108.054 230.493 88.0227 229.009C68.0685 227.531 50.8978 216.453 37.4545 202.049C-5.23711 156.308 72.7237 106.297 107.637 90.1428C135.262 77.3608 161.905 65.2213 190.8 55.765C223.312 45.1246 256.556 36.5948 290.01 29.518C312.852 24.686 336.317 26.2371 359.551 26.2371C377.029 26.2371 395.713 26.4518 410.904 36.579C421.862 43.8843 431.219 53.7772 433.727 67.3194C437.386 87.0752 430.912 103.379 419.605 118.957C409.954 132.254 394.763 141.633 380.662 149.413C372.89 153.701 364.922 157.354 356.983 161.324C351.909 163.861 345.878 165.586 341.078 168.171C334.628 171.644 326.62 174.04 319.467 176.159C316.247 177.113 343.726 156.961 350.224 153.634Z" fill="#CFE398"/>
<path d="M351.523 153.479C342.105 153.479 296.761 186.678 287.657 188.997C271.043 193.229 253.679 198.11 237.659 204.118C209.836 214.551 180.348 219.471 151.429 226.228C131.791 230.816 108.054 230.493 88.0227 229.009C68.0685 227.531 50.8978 216.453 37.4545 202.049C-5.23711 156.308 72.7237 106.297 107.637 90.1428C135.262 77.3608 161.905 65.2213 190.8 55.765C223.312 45.1247 256.556 36.5948 290.01 29.518C312.852 24.686 336.317 26.2371 359.551 26.2371C377.029 26.2371 395.713 26.4518 410.904 36.579C421.862 43.8843 431.219 53.7772 433.727 67.3194C437.386 87.0752 430.912 103.379 419.605 118.957C409.954 132.254 394.763 141.633 380.662 149.413C372.89 153.701 364.922 157.354 356.983 161.324C351.909 163.861 345.878 165.586 341.078 168.171C334.628 171.644 326.62 174.04 319.467 176.159C315.734 177.265 353.26 150.005 351.523 153.479Z" stroke="#CFE398" stroke-width="50" stroke-linecap="round"/>
</svg>
